<?xml version="1.0" encoding="utf-8"?>
<!-- Generator: Adobe Illustrator 23.0.4, SVG Export Plug-In . SVG Version: 6.00 Build 0)  -->
<svg version="1.1" id="Capa_1" xmlns="http://www.w3.org/2000/svg" xmlns:xlink="http://www.w3.org/1999/xlink" x="0px" y="0px"
	 viewBox="0 0 405.5128 76.1032" style="enable-background:new 0 0 405.5128 76.1032;" xml:space="preserve">
<style type="text/css">
	.st0{fill:#00AADB;}
	.st1{fill:#3FA74D;}
	.st2{fill:#1D1D1B;}
</style>
<title>Group 9</title>
<desc>Created with Sketch.</desc>
<g id="Page-1">
	<g id="Home" transform="translate(-115.000000, -44.000000)">
		<g id="Group-8" transform="translate(115.000000, 44.000000)">
			<g id="Group-9">
				<g id="_Group_2">
					<rect id="_Rectangle_" x="2.002" y="2.0006" class="st0" width="72.2946" height="36.3471"/>
					<rect id="_Rectangle_2" x="2.002" y="38.3477" class="st1" width="72.2946" height="36.3471"/>
				</g>
				<path id="_Path_" class="st2" d="M176.796,16.0679c0.0124-0.8529,0.7037-1.5378,1.5522-1.5377h31.1679
					c0.8572,0,1.5522-0.6987,1.5522-1.5605V3.5611c0-0.8574-0.688-1.5542-1.5408-1.5605h-45.4319
					c-0.8572,0-1.5522,0.6987-1.5522,1.5605V73.123c0,0.8618,0.6949,1.5605,1.5522,1.5605h45.4319
					c0.8572,0,1.5522-0.6987,1.5522-1.5605v-9.3744c0-0.8618-0.6949-1.5605-1.5522-1.5605h-31.1679
					c-0.8572,0-1.5522-0.6987-1.5522-1.5605V44.1455c0-0.8618,0.6949-1.5605,1.5522-1.5605h28.4375
					c0.8572,0,1.5522-0.6987,1.5522-1.5605v-9.4086c0-0.8618-0.6949-1.5605-1.5522-1.5605h-28.7094
					c-0.7457-0.1277-1.2913-0.7772-1.2916-1.5377V16.0679z"/>
				<path id="_Path_2" class="st2" d="M309.0358,16.0679c0.0118-0.8355,0.6761-1.5134,1.5068-1.5377h31.1679
					c0.8572,0,1.5522-0.6987,1.5522-1.5605V3.5611c0-0.8618-0.6949-1.5605-1.5522-1.5605h-45.4319
					c-0.8572,0-1.5522,0.6987-1.5522,1.5605V73.123c0,0.8618,0.6949,1.5605,1.5522,1.5605h45.4319
					c0.8572,0,1.5522-0.6987,1.5522-1.5605v-9.3744c0-0.8618-0.6949-1.5605-1.5522-1.5605h-31.1679
					c-0.8439-0.0248-1.5134-0.7231-1.5068-1.5719V44.1455c0-0.8618,0.6949-1.5605,1.5522-1.5605h28.4374
					c0.8572,0,1.5522-0.6987,1.5522-1.5605v-9.4086c0-0.8618-0.6949-1.5605-1.5522-1.5605h-28.7547
					c-0.7149-0.15-1.229-0.7808-1.2349-1.5149V16.0679L309.0358,16.0679z"/>
				<path id="_Path_3" class="st2" d="M151.6895,62.1767h-28.9699c-0.4117,0-0.8065-0.1644-1.0975-0.4571
					c-0.2911-0.2927-0.4546-0.6896-0.4546-1.1034V3.5611c0-0.4159-0.1651-0.8145-0.4586-1.1075
					c-0.2935-0.293-0.6913-0.456-1.1049-0.453h-11.1031c-0.4117,0-0.8064,0.1644-1.0975,0.4571
					c-0.2911,0.2927-0.4546,0.6896-0.4546,1.1034V73.123c0,0.4139,0.1635,0.8108,0.4546,1.1034
					c0.2911,0.2926,0.6859,0.4571,1.0975,0.4571h43.234c0.8573,0,1.5522-0.6987,1.5522-1.5605v-9.3744
					c0.0033-0.4239-0.1651-0.8308-0.4664-1.1273C152.5192,62.3248,152.1109,62.1643,151.6895,62.1767z"/>
				<path id="_Path_4" class="st2" d="M402.3242,62.1767h-28.9699c-0.8572,0-1.5522-0.6987-1.5522-1.5605V3.5611
					c0.0001-0.4199-0.1681-0.822-0.4666-1.1157c-0.2985-0.2937-0.7021-0.454-1.1196-0.4448h-11.1484
					c-0.8573,0-1.5522,0.6987-1.5522,1.5605V73.123c0,0.8618,0.6949,1.5605,1.5522,1.5605h43.234
					c0.8572,0,1.5522-0.6987,1.5522-1.5605v-9.3744C403.86,62.8911,403.177,62.1892,402.3242,62.1767z"/>
				<path id="_Path_5" class="st2" d="M285.3341,2.0006h-11.9188c-0.6049,0.0026-1.1532,0.3582-1.4048,0.9112l-0.068,0.1709
					l-17.5836,47.5098v0.0911l-0.3512,0.9682c-0.1669,0.4425-0.5886,0.7351-1.0593,0.7351s-0.8924-0.2926-1.0593-0.7351
					l-0.3739-0.991v-0.0911L233.8748,3.1396l-0.0906-0.2506c-0.2565-0.5404-0.798-0.8856-1.3936-0.8885h-11.9188
					c-0.5121,0.0021-0.9901,0.2579-1.2778,0.6838s-0.3479,0.967-0.1611,1.4463l0,0l25.6164,69.1974l0.2039,0.5467
					c0.281,0.4661,0.7834,0.7511,1.3256,0.7518h13.3916c0.6904-0.002,1.2939-0.4687,1.4729-1.139l25.707-69.2771l0.0567-0.1595
					c0.0563-0.1573,0.0869-0.3227,0.0906-0.4898c0-0.4159-0.1651-0.8145-0.4586-1.1075
					C286.1455,2.1606,285.7478,1.9976,285.3341,2.0006L285.3341,2.0006z"/>
			</g>
		</g>
	</g>
</g>
</svg>
